Format                                   : Matroska
Format version                           : Version 2
File size                                : 696 MiB
Duration                                 : 2h 23mn
Overall bit rate                         : 677 Kbps
Movie name                               : Bol Bachchan  [2012]1CD-DVDRip-AC3-By-K@rtik [EXD Exclusive]

Codec ID                                 : V_MPEG4/ISO/AVC
Duration                                 : 2h 23mn
Bit rate                                 : 548 Kbps
Width                                    : 688 pixels
Height                                   : 288 pixels
Display aspect ratio                     : 2.40:1
Frame rate                               : 29.970 fps
Color space                              : YUV
Chroma subsampling                       : 4:2:0
Bit depth                                : 8 bits
Scan type                                : Progressive
Bits/(Pixel*Frame)                       : 0.092
Stream size                              : 550 MiB (79%)
Title                                    : K@rtik

Codec ID                                 : A_AC3
Duration                                 : 2h 23mn
Bit rate mode                            : Constant
Bit rate                                 : 128 Kbps
Channel(s)                               : 2 channels
Channel positions                        : Front: L R
Sampling rate                            : 48.0 KHz
Bit depth                                : 16 bits
Compression mode                         : Lossy
Stream size                              : 131 MiB (19%)
Title                                    : K@rtik
Language                                 : Hindi
 
http://imageshack.us/a/img194/4245/17054413.png 
http://imageshack.us/a/img138/7755/27154423.png 
http://imageshack.us/a/img407/2683/83455176.png 
http://imageshack.us/a/img849/9430/58533229.png 
http://imageshack.us/a/img692/2537/68383041.png 
http://imageshack.us/a/img254/9590/67243946.png 
http://imageshack.us/a/img545/1530/32895937.png 
http://imageshack.us/a/img407/2797/77565606.png 
http://imageshack.us/a/img560/200/52413067.png 
http://imageshack.us/a/img713/4788/61718664.png 
http://imageshack.us/a/img593/5987/42733757.png